<mxfile host="65bd71144e">
    <diagram id="mEegcNPy--BJA5f4KESG" name="Page-1">
        <mxGraphModel dx="3370" dy="3028" grid="0" gridSize="10" guides="1" tooltips="1" connect="1" arrows="1" fold="1" page="1" pageScale="1" pageWidth="850" pageHeight="1100" background="#ffffff" math="0" shadow="0">
            <root>
                <mxCell id="0"/>
                <mxCell id="1" parent="0"/>
                <mxCell id="75" value="" style="rounded=0;whiteSpace=wrap;html=1;fontSize=20;fontColor=#000000;strokeColor=#000000;strokeWidth=2;fillColor=none;" vertex="1" parent="1">
                    <mxGeometry x="-56.5" y="-10" width="913" height="2245" as="geometry"/>
                </mxCell>
                <mxCell id="2" value="" style="shape=umlLifeline;participant=umlActor;perimeter=lifelinePerimeter;whiteSpace=wrap;html=1;container=0;collapsible=0;recursiveResize=0;verticalAlign=top;spacingTop=36;outlineConnect=0;strokeWidth=2;strokeColor=#82b366;fillColor=#d5e8d4;" parent="1" vertex="1">
                    <mxGeometry x="150" y="120" width="20" height="2060" as="geometry"/>
                </mxCell>
                <mxCell id="3" value="&lt;b&gt;Software&lt;/b&gt;&lt;br&gt;( Client Side )&amp;nbsp;" style="shape=umlLifeline;perimeter=lifelinePerimeter;whiteSpace=wrap;html=1;container=1;collapsible=0;recursiveResize=0;outlineConnect=0;strokeColor=#b85450;strokeWidth=2;fillColor=#f8cecc;fontColor=#000000;" parent="1" vertex="1">
                    <mxGeometry x="270" y="120" width="100" height="2052" as="geometry"/>
                </mxCell>
                <mxCell id="4" value="" style="html=1;points=[];perimeter=orthogonalPerimeter;strokeColor=#ae4132;strokeWidth=2;fillColor=#fad9d5;" parent="3" vertex="1">
                    <mxGeometry x="45" y="80" width="10" height="80" as="geometry"/>
                </mxCell>
                <mxCell id="26" value="Display selected&lt;br&gt;playlist" style="html=1;verticalAlign=bottom;endArrow=block;fontColor=#000000;labelBackgroundColor=#FFFFFF;strokeWidth=2;fillColor=#f8cecc;strokeColor=#b85450;" parent="3" edge="1">
                    <mxGeometry x="0.1667" y="15" width="80" relative="1" as="geometry">
                        <mxPoint x="55" y="120" as="sourcePoint"/>
                        <mxPoint x="55" y="160" as="targetPoint"/>
                        <Array as="points">
                            <mxPoint x="95" y="120"/>
                            <mxPoint x="95" y="160"/>
                        </Array>
                        <mxPoint as="offset"/>
                    </mxGeometry>
                </mxCell>
                <mxCell id="63" value="&lt;b&gt;Play&amp;nbsp;&lt;/b&gt;&lt;br&gt;&quot;Next media'&quot;" style="html=1;verticalAlign=bottom;endArrow=block;fontColor=#000000;labelBackgroundColor=#FFFFFF;strokeWidth=2;fillColor=#f8cecc;strokeColor=#b85450;" edge="1" parent="3">
                    <mxGeometry y="25" width="80" relative="1" as="geometry">
                        <mxPoint x="55" y="1320" as="sourcePoint"/>
                        <mxPoint x="55" y="1360" as="targetPoint"/>
                        <Array as="points">
                            <mxPoint x="95" y="1320"/>
                            <mxPoint x="95" y="1360"/>
                        </Array>
                        <mxPoint as="offset"/>
                    </mxGeometry>
                </mxCell>
                <mxCell id="69" value="&lt;b&gt;Remove&amp;nbsp;&lt;br&gt;&lt;/b&gt;media from playlist" style="html=1;verticalAlign=bottom;endArrow=block;fontColor=#000000;labelBackgroundColor=#FFFFFF;strokeWidth=2;fillColor=#f8cecc;strokeColor=#b85450;" edge="1" parent="3">
                    <mxGeometry x="0.1667" y="15" width="80" relative="1" as="geometry">
                        <mxPoint x="55.99999999999977" y="1600" as="sourcePoint"/>
                        <mxPoint x="55.99999999999977" y="1640" as="targetPoint"/>
                        <Array as="points">
                            <mxPoint x="96" y="1600"/>
                            <mxPoint x="96" y="1640"/>
                        </Array>
                        <mxPoint as="offset"/>
                    </mxGeometry>
                </mxCell>
                <mxCell id="5" value="&lt;b&gt;API&lt;/b&gt;&lt;br&gt;( Server Side )" style="shape=umlLifeline;perimeter=lifelinePerimeter;whiteSpace=wrap;html=1;container=1;collapsible=0;recursiveResize=0;outlineConnect=0;strokeColor=#9673a6;strokeWidth=2;fillColor=#e1d5e7;fontColor=#000000;" parent="1" vertex="1">
                    <mxGeometry x="430" y="120" width="100" height="2057" as="geometry"/>
                </mxCell>
                <mxCell id="6" value="" style="html=1;points=[];perimeter=orthogonalPerimeter;strokeColor=#56517e;strokeWidth=2;fillColor=#d0cee2;" parent="5" vertex="1">
                    <mxGeometry x="45" y="70" width="10" height="50" as="geometry"/>
                </mxCell>
                <mxCell id="7" value="&lt;b&gt;Python process&lt;/b&gt;&lt;br&gt;( pytube )" style="shape=umlLifeline;perimeter=lifelinePerimeter;whiteSpace=wrap;html=1;container=1;collapsible=0;recursiveResize=0;outlineConnect=0;strokeColor=#10739e;strokeWidth=2;fillColor=#b1ddf0;fontColor=#000000;" parent="1" vertex="1">
                    <mxGeometry x="590" y="120" width="100" height="2044" as="geometry"/>
                </mxCell>
                <mxCell id="8" value="" style="html=1;points=[];perimeter=orthogonalPerimeter;strokeColor=#10739e;strokeWidth=2;fillColor=#b1ddf0;" parent="7" vertex="1">
                    <mxGeometry x="45" y="70" width="10" height="50" as="geometry"/>
                </mxCell>
                <mxCell id="19" value="Read Playlist - Sequences Diagram" style="text;align=center;fontStyle=1;verticalAlign=middle;spacingLeft=3;spacingRight=3;strokeColor=none;rotatable=0;points=[[0,0.5],[1,0.5]];portConstraint=eastwest;fontColor=#000000;fontSize=25;" parent="1" vertex="1">
                    <mxGeometry x="360" y="50" width="80" height="26" as="geometry"/>
                </mxCell>
                <mxCell id="23" value="" style="html=1;points=[];perimeter=orthogonalPerimeter;strokeColor=#82b366;strokeWidth=2;fillColor=#d5e8d4;" parent="1" vertex="1">
                    <mxGeometry x="155" y="200" width="10" height="40" as="geometry"/>
                </mxCell>
                <mxCell id="25" value="&lt;b&gt;Click on&amp;nbsp;&lt;/b&gt;&lt;br&gt;playlist &lt;i&gt;&lt;b&gt;&lt;u&gt;list item&lt;/u&gt;&lt;/b&gt;&lt;/i&gt;" style="html=1;verticalAlign=bottom;endArrow=block;fontColor=#000000;labelBackgroundColor=none;strokeWidth=2;fillColor=#d5e8d4;gradientColor=#97d077;strokeColor=#82b366;" parent="1" edge="1">
                    <mxGeometry width="80" relative="1" as="geometry">
                        <mxPoint x="166" y="200" as="sourcePoint"/>
                        <mxPoint x="315" y="200" as="targetPoint"/>
                    </mxGeometry>
                </mxCell>
                <mxCell id="28" value="" style="html=1;points=[];perimeter=orthogonalPerimeter;strokeColor=#ae4132;strokeWidth=2;fillColor=#fad9d5;" parent="1" vertex="1">
                    <mxGeometry x="315" y="320" width="10" height="1160" as="geometry"/>
                </mxCell>
                <mxCell id="29" value="&lt;b&gt;Get&lt;/b&gt; the selected &lt;br&gt;media stored on the &lt;br&gt;harddrive from &lt;br&gt;a file path" style="html=1;verticalAlign=bottom;endArrow=block;fontColor=#000000;labelBackgroundColor=#FFFFFF;strokeWidth=2;fillColor=#f8cecc;strokeColor=#b85450;" parent="1" edge="1">
                    <mxGeometry y="35" width="80" relative="1" as="geometry">
                        <mxPoint x="325" y="360" as="sourcePoint"/>
                        <mxPoint x="325" y="400" as="targetPoint"/>
                        <Array as="points">
                            <mxPoint x="365" y="360"/>
                            <mxPoint x="365" y="400"/>
                        </Array>
                        <mxPoint as="offset"/>
                    </mxGeometry>
                </mxCell>
                <mxCell id="30" value="" style="html=1;points=[];perimeter=orthogonalPerimeter;strokeColor=#82b366;strokeWidth=2;fillColor=#d5e8d4;" parent="1" vertex="1">
                    <mxGeometry x="155" y="320" width="10" height="40" as="geometry"/>
                </mxCell>
                <mxCell id="31" value="&lt;b&gt;Click on&amp;nbsp;&lt;/b&gt;&lt;br&gt;media&amp;nbsp;" style="html=1;verticalAlign=bottom;endArrow=block;fontColor=#000000;labelBackgroundColor=none;strokeWidth=2;fillColor=#d5e8d4;gradientColor=#97d077;strokeColor=#82b366;" parent="1" edge="1">
                    <mxGeometry width="80" relative="1" as="geometry">
                        <mxPoint x="166" y="320" as="sourcePoint"/>
                        <mxPoint x="315" y="320" as="targetPoint"/>
                    </mxGeometry>
                </mxCell>
                <mxCell id="33" value="&lt;b&gt;&lt;font style=&quot;font-size: 20px&quot;&gt;Alt&lt;/font&gt;&lt;/b&gt;" style="shape=umlFrame;tabWidth=110;tabHeight=30;tabPosition=left;html=1;boundedLbl=1;labelInHeader=1;width=140;height=30;fillColor=none;strokeColor=#4D4D4D;strokeWidth=2;fontColor=#000000;" parent="1" vertex="1">
                    <mxGeometry x="-20" y="480" width="540" height="320" as="geometry"/>
                </mxCell>
                <mxCell id="34" value="[ If an error has occured&#10;when the sytem try &#10;to get or read a media ]" style="text;fontColor=#000000;fontSize=15;" parent="33" vertex="1">
                    <mxGeometry width="100" height="20" relative="1" as="geometry">
                        <mxPoint x="10" y="40" as="offset"/>
                    </mxGeometry>
                </mxCell>
                <mxCell id="35" value="[ Else ]" style="line;strokeWidth=2;dashed=1;labelPosition=center;verticalLabelPosition=bottom;align=left;verticalAlign=top;spacingLeft=20;spacingTop=15;fontColor=#000000;strokeColor=#4D4D4D;labelBackgroundColor=none;fontSize=15;" parent="33" vertex="1">
                    <mxGeometry y="193.66666666666666" width="540" height="12.8" as="geometry"/>
                </mxCell>
                <mxCell id="32" value="&lt;b&gt;Display Error&lt;/b&gt;&lt;br&gt;&lt;i&gt;&lt;b&gt;&quot;&lt;/b&gt;Cannot read this media&quot;&lt;/i&gt;" style="html=1;verticalAlign=bottom;endArrow=block;fontColor=#000000;labelBackgroundColor=#FFFFFF;strokeWidth=2;fillColor=#f8cecc;strokeColor=#b85450;" parent="33" edge="1">
                    <mxGeometry y="44" width="80" relative="1" as="geometry">
                        <mxPoint x="346" y="40" as="sourcePoint"/>
                        <mxPoint x="346" y="80" as="targetPoint"/>
                        <Array as="points">
                            <mxPoint x="386" y="40"/>
                            <mxPoint x="386" y="80"/>
                        </Array>
                        <mxPoint as="offset"/>
                    </mxGeometry>
                </mxCell>
                <mxCell id="36" value="&lt;b&gt;Try to &lt;/b&gt;read&lt;br&gt;next media" style="html=1;verticalAlign=bottom;endArrow=block;fontColor=#000000;labelBackgroundColor=#FFFFFF;strokeWidth=2;fillColor=#f8cecc;strokeColor=#b85450;" parent="33" edge="1">
                    <mxGeometry x="0.1667" y="34" width="80" relative="1" as="geometry">
                        <mxPoint x="346" y="120" as="sourcePoint"/>
                        <mxPoint x="346" y="160" as="targetPoint"/>
                        <Array as="points">
                            <mxPoint x="386" y="120"/>
                            <mxPoint x="386" y="160"/>
                        </Array>
                        <mxPoint as="offset"/>
                    </mxGeometry>
                </mxCell>
                <mxCell id="37" value="&lt;b&gt;Play &lt;/b&gt;Media" style="html=1;verticalAlign=bottom;endArrow=block;fontColor=#000000;labelBackgroundColor=#FFFFFF;strokeWidth=2;fillColor=#f8cecc;strokeColor=#b85450;" parent="33" edge="1">
                    <mxGeometry y="34" width="80" relative="1" as="geometry">
                        <mxPoint x="346" y="240" as="sourcePoint"/>
                        <mxPoint x="346" y="280" as="targetPoint"/>
                        <Array as="points">
                            <mxPoint x="386" y="240"/>
                            <mxPoint x="386" y="280"/>
                        </Array>
                        <mxPoint as="offset"/>
                    </mxGeometry>
                </mxCell>
                <mxCell id="51" value="&lt;b&gt;Toggle&lt;/b&gt; State&lt;br&gt;&quot;play random sound&quot;" style="html=1;verticalAlign=bottom;endArrow=block;fontColor=#000000;labelBackgroundColor=#FFFFFF;strokeWidth=2;fillColor=#f8cecc;strokeColor=#b85450;" parent="1" edge="1">
                    <mxGeometry y="25" width="80" relative="1" as="geometry">
                        <mxPoint x="325" y="880" as="sourcePoint"/>
                        <mxPoint x="325" y="920" as="targetPoint"/>
                        <Array as="points">
                            <mxPoint x="365" y="880"/>
                            <mxPoint x="365" y="920"/>
                        </Array>
                        <mxPoint as="offset"/>
                    </mxGeometry>
                </mxCell>
                <mxCell id="52" value="" style="html=1;points=[];perimeter=orthogonalPerimeter;strokeColor=#82b366;strokeWidth=2;fillColor=#d5e8d4;" parent="1" vertex="1">
                    <mxGeometry x="155" y="840" width="10" height="40" as="geometry"/>
                </mxCell>
                <mxCell id="53" value="&lt;b&gt;Toggle&lt;br&gt;&lt;/b&gt;&quot;&lt;i&gt;Play Random Sound&lt;/i&gt;&quot; Button" style="html=1;verticalAlign=bottom;endArrow=block;fontColor=#000000;labelBackgroundColor=none;strokeWidth=2;fillColor=#d5e8d4;gradientColor=#97d077;strokeColor=#82b366;" parent="1" edge="1">
                    <mxGeometry width="80" relative="1" as="geometry">
                        <mxPoint x="166" y="840" as="sourcePoint"/>
                        <mxPoint x="315" y="840" as="targetPoint"/>
                    </mxGeometry>
                </mxCell>
                <mxCell id="55" value="&lt;b&gt;Toggle&lt;/b&gt; State&lt;br&gt;&quot;play random sound&quot;" style="html=1;verticalAlign=bottom;endArrow=block;fontColor=#000000;labelBackgroundColor=#FFFFFF;strokeWidth=2;fillColor=#f8cecc;strokeColor=#b85450;" parent="1" edge="1">
                    <mxGeometry y="25" width="80" relative="1" as="geometry">
                        <mxPoint x="325" y="1000" as="sourcePoint"/>
                        <mxPoint x="325" y="1040" as="targetPoint"/>
                        <Array as="points">
                            <mxPoint x="365" y="1000"/>
                            <mxPoint x="365" y="1040"/>
                        </Array>
                        <mxPoint as="offset"/>
                    </mxGeometry>
                </mxCell>
                <mxCell id="56" value="" style="html=1;points=[];perimeter=orthogonalPerimeter;strokeColor=#82b366;strokeWidth=2;fillColor=#d5e8d4;" parent="1" vertex="1">
                    <mxGeometry x="155" y="960" width="10" height="40" as="geometry"/>
                </mxCell>
                <mxCell id="57" value="&lt;b&gt;Toggle&lt;br&gt;&lt;/b&gt;&quot;&lt;i&gt;Play Random Sound&lt;/i&gt;&quot; Button" style="html=1;verticalAlign=bottom;endArrow=block;fontColor=#000000;labelBackgroundColor=none;strokeWidth=2;fillColor=#d5e8d4;gradientColor=#97d077;strokeColor=#82b366;" parent="1" edge="1">
                    <mxGeometry width="80" relative="1" as="geometry">
                        <mxPoint x="166" y="960" as="sourcePoint"/>
                        <mxPoint x="315" y="960" as="targetPoint"/>
                    </mxGeometry>
                </mxCell>
                <mxCell id="64" value="&lt;b&gt;&lt;font style=&quot;font-size: 20px&quot;&gt;Loop&lt;/font&gt;&lt;/b&gt;" style="shape=umlFrame;whiteSpace=wrap;html=1;width=120;height=30;boundedLbl=1;verticalAlign=middle;align=left;spacingLeft=5;fillColor=none;strokeColor=#000000;strokeWidth=2;fontColor=#000000;" vertex="1" parent="1">
                    <mxGeometry x="-40" y="1080.5" width="760" height="439.5" as="geometry"/>
                </mxCell>
                <mxCell id="58" value="&lt;b&gt;&lt;font style=&quot;font-size: 20px&quot;&gt;Alt&lt;/font&gt;&lt;/b&gt;" style="shape=umlFrame;tabWidth=110;tabHeight=30;tabPosition=left;html=1;boundedLbl=1;labelInHeader=1;width=140;height=30;fillColor=none;strokeColor=#4D4D4D;strokeWidth=2;fontColor=#000000;" parent="1" vertex="1">
                    <mxGeometry x="-20" y="1120" width="700" height="280" as="geometry"/>
                </mxCell>
                <mxCell id="59" value="[  If the media is &#10;ended and the &#10;customer choice &#10;is random play ]" style="text;fontColor=#000000;fontSize=15;fontStyle=0" parent="58" vertex="1">
                    <mxGeometry width="100" height="20" relative="1" as="geometry">
                        <mxPoint x="10" y="40" as="offset"/>
                    </mxGeometry>
                </mxCell>
                <mxCell id="60" value="[else If the media is &#10;ended and the &#10;customer choice is &#10;play loop ]" style="line;strokeWidth=2;dashed=1;labelPosition=center;verticalLabelPosition=bottom;align=left;verticalAlign=top;spacingLeft=20;spacingTop=15;fontColor=#000000;strokeColor=#4D4D4D;labelBackgroundColor=none;fontSize=15;" parent="58" vertex="1">
                    <mxGeometry x="1" y="153.8" width="700" height="11.200000000000001" as="geometry"/>
                </mxCell>
                <mxCell id="61" value="&lt;b&gt;Play&amp;nbsp;&lt;/b&gt;&lt;br&gt;random media&lt;br&gt;in the playlist" style="html=1;verticalAlign=bottom;endArrow=block;fontColor=#000000;labelBackgroundColor=#FFFFFF;strokeWidth=2;fillColor=#f8cecc;strokeColor=#b85450;" edge="1" parent="58">
                    <mxGeometry y="25" width="80" relative="1" as="geometry">
                        <mxPoint x="346" y="60" as="sourcePoint"/>
                        <mxPoint x="346" y="100" as="targetPoint"/>
                        <Array as="points">
                            <mxPoint x="386" y="60"/>
                            <mxPoint x="386" y="100"/>
                        </Array>
                        <mxPoint as="offset"/>
                    </mxGeometry>
                </mxCell>
                <mxCell id="62" value="&lt;b&gt;Replay&amp;nbsp;&lt;/b&gt;&lt;br&gt;actual media" style="html=1;verticalAlign=bottom;endArrow=block;fontColor=#000000;labelBackgroundColor=#FFFFFF;strokeWidth=2;fillColor=#f8cecc;strokeColor=#b85450;" edge="1" parent="58">
                    <mxGeometry y="25" width="80" relative="1" as="geometry">
                        <mxPoint x="346" y="201" as="sourcePoint"/>
                        <mxPoint x="346" y="241" as="targetPoint"/>
                        <Array as="points">
                            <mxPoint x="386" y="201"/>
                            <mxPoint x="386" y="241"/>
                        </Array>
                        <mxPoint as="offset"/>
                    </mxGeometry>
                </mxCell>
                <mxCell id="65" value="" style="html=1;points=[];perimeter=orthogonalPerimeter;strokeColor=#ae4132;strokeWidth=2;fillColor=#fad9d5;" vertex="1" parent="1">
                    <mxGeometry x="315" y="1600" width="10" height="160" as="geometry"/>
                </mxCell>
                <mxCell id="66" value="&lt;b&gt;Remove&amp;nbsp;&lt;br&gt;&lt;/b&gt;media from files" style="html=1;verticalAlign=bottom;endArrow=block;fontColor=#000000;labelBackgroundColor=#FFFFFF;strokeWidth=2;fillColor=#f8cecc;strokeColor=#b85450;" edge="1" parent="1">
                    <mxGeometry x="0.1667" y="15" width="80" relative="1" as="geometry">
                        <mxPoint x="325" y="1640" as="sourcePoint"/>
                        <mxPoint x="325" y="1680" as="targetPoint"/>
                        <Array as="points">
                            <mxPoint x="365" y="1640"/>
                            <mxPoint x="365" y="1680"/>
                        </Array>
                        <mxPoint as="offset"/>
                    </mxGeometry>
                </mxCell>
                <mxCell id="67" value="" style="html=1;points=[];perimeter=orthogonalPerimeter;strokeColor=#82b366;strokeWidth=2;fillColor=#d5e8d4;" vertex="1" parent="1">
                    <mxGeometry x="155" y="1600" width="10" height="40" as="geometry"/>
                </mxCell>
                <mxCell id="68" value="&lt;b&gt;Click on&amp;nbsp;&lt;/b&gt;&lt;br&gt;remove media button" style="html=1;verticalAlign=bottom;endArrow=block;fontColor=#000000;labelBackgroundColor=none;strokeWidth=2;fillColor=#d5e8d4;gradientColor=#97d077;strokeColor=#82b366;" edge="1" parent="1">
                    <mxGeometry width="80" relative="1" as="geometry">
                        <mxPoint x="166" y="1600" as="sourcePoint"/>
                        <mxPoint x="315" y="1600" as="targetPoint"/>
                    </mxGeometry>
                </mxCell>
                <mxCell id="70" value="&lt;b&gt;set&amp;nbsp;&lt;/b&gt;&lt;br&gt;&quot;Updated Design&quot;&lt;br&gt;to the fav button" style="html=1;verticalAlign=bottom;endArrow=block;fontColor=#000000;labelBackgroundColor=#FFFFFF;strokeWidth=2;fillColor=#f8cecc;strokeColor=#b85450;" edge="1" parent="1">
                    <mxGeometry x="0.15" y="34" width="80" relative="1" as="geometry">
                        <mxPoint x="326" y="1921" as="sourcePoint"/>
                        <mxPoint x="326" y="1961" as="targetPoint"/>
                        <Array as="points">
                            <mxPoint x="366" y="1921"/>
                            <mxPoint x="366" y="1961"/>
                        </Array>
                        <mxPoint as="offset"/>
                    </mxGeometry>
                </mxCell>
                <mxCell id="71" value="" style="html=1;points=[];perimeter=orthogonalPerimeter;strokeColor=#ae4132;strokeWidth=2;fillColor=#fad9d5;" vertex="1" parent="1">
                    <mxGeometry x="315" y="1801" width="10" height="160" as="geometry"/>
                </mxCell>
                <mxCell id="72" value="&lt;i style=&quot;background-color: rgb(255 , 255 , 255)&quot;&gt;&lt;b&gt;ADD&lt;/b&gt;&amp;nbsp;media to&lt;br&gt;the favorites&lt;/i&gt;" style="html=1;verticalAlign=bottom;endArrow=block;fontColor=#000000;labelBackgroundColor=#FFFFFF;strokeWidth=2;fillColor=#f8cecc;strokeColor=#b85450;" edge="1" parent="1">
                    <mxGeometry x="0.15" y="15" width="80" relative="1" as="geometry">
                        <mxPoint x="325" y="1841" as="sourcePoint"/>
                        <mxPoint x="325" y="1881" as="targetPoint"/>
                        <Array as="points">
                            <mxPoint x="365" y="1841"/>
                            <mxPoint x="365" y="1881"/>
                        </Array>
                        <mxPoint as="offset"/>
                    </mxGeometry>
                </mxCell>
                <mxCell id="73" value="" style="html=1;points=[];perimeter=orthogonalPerimeter;strokeColor=#82b366;strokeWidth=2;fillColor=#d5e8d4;" vertex="1" parent="1">
                    <mxGeometry x="155" y="1801" width="10" height="40" as="geometry"/>
                </mxCell>
                <mxCell id="74" value="&lt;b&gt;Click on&amp;nbsp;&lt;/b&gt;&lt;br&gt;&lt;i&gt;&quot;add a media to&lt;br&gt;the favorites&quot;&lt;/i&gt;" style="html=1;verticalAlign=bottom;endArrow=block;fontColor=#000000;labelBackgroundColor=none;strokeWidth=2;fillColor=#d5e8d4;gradientColor=#97d077;strokeColor=#82b366;" edge="1" parent="1">
                    <mxGeometry width="80" relative="1" as="geometry">
                        <mxPoint x="166" y="1801" as="sourcePoint"/>
                        <mxPoint x="315" y="1801" as="targetPoint"/>
                    </mxGeometry>
                </mxCell>
            </root>
        </mxGraphModel>
    </diagram>
</mxfile>